<svg width="143" height="30" viewBox="0 0 143 30" fill="none" xmlns="http://www.w3.org/2000/svg">
<path d="M142.5 15C142.5 6.71573 135.784 0 127.5 0H61.5V30H127.5C135.784 30 142.5 23.2843 142.5 15Z" fill="#6C60A2"/>
<path d="M102.299 18.856C103.035 20.36 104.651 21.128 106.235 21.128C108.299 21.128 110.347 19.96 110.379 17.64V16.952C110.347 14.6 108.315 13.624 106.347 13.608C105.531 13.592 104.811 13.752 104.059 14.04V11.144H109.819V9.832H102.747V15.656L103.483 15.624C104.475 15.16 105.275 14.952 106.347 14.952C107.771 14.952 109.067 15.528 109.067 16.968V17.624C109.067 19.08 107.659 19.768 106.267 19.768C105.147 19.768 103.979 19.256 103.499 18.28L102.299 18.856ZM111.738 20.152C111.738 20.68 112.154 21.096 112.682 21.096C113.21 21.096 113.626 20.68 113.626 20.152C113.626 19.624 113.21 19.208 112.682 19.208C112.154 19.208 111.738 19.624 111.738 20.152ZM114.161 18.856C114.897 20.392 116.593 21.16 118.209 21.16C120.257 21.16 122.289 20.04 122.321 17.768C122.321 16.52 121.761 15.304 120.513 14.888C121.457 14.456 121.809 13.608 121.809 12.712C121.809 10.648 120.017 9.64 118.193 9.64C116.753 9.64 115.265 10.344 114.609 11.672L115.745 12.264C116.225 11.384 117.265 10.92 118.273 10.92C119.425 10.92 120.513 11.48 120.513 12.712C120.513 13.896 119.681 14.376 118.545 14.376H117.441V15.528H118.545C120.065 15.512 121.009 16.216 121.009 17.752C121.009 19.144 119.649 19.816 118.257 19.816C117.073 19.816 115.857 19.288 115.361 18.28L114.161 18.856ZM123.923 9.672V21H125.267V17.24L126.419 16.088L131.027 21H132.771C131.139 19.24 129.043 16.936 127.379 15.128L132.835 9.672H131.059C129.123 11.544 127.187 13.496 125.267 15.368V9.672H123.923Z" fill="#D3D0E8"/>
<path d="M81 8.77426C73.5 8.77426 70.5 15.3562 70.5 15.3562C70.5 15.3562 73.5 21.9368 81 21.9368C88.5 21.9368 91.5 15.3562 91.5 15.3562C91.5 15.3562 88.5 8.77426 81 8.77426Z" stroke="#D3D0E8" stroke-linecap="round" stroke-linejoin="round"/>
<path d="M81 19.0125C83.0711 19.0125 84.75 17.3756 84.75 15.3563C84.75 13.337 83.0711 11.7 81 11.7C78.9289 11.7 77.25 13.337 77.25 15.3563C77.25 17.3756 78.9289 19.0125 81 19.0125Z" stroke="#D3D0E8" stroke-linecap="round" stroke-linejoin="round"/>
<path d="M0 15C0 6.71573 6.71573 0 15 0H61.5V30H15C6.71573 30 0 23.2843 0 15Z" fill="#E1153E"/>
<path d="M25.4361 19.144H20.2681V9.672H18.4281V21H25.4361V19.144ZM26.0556 21H27.8956V9.672H26.0556V21ZM30.5631 9.656H28.5951L32.6911 20.984H34.6431L38.7231 9.656H36.7711L34.2431 16.824L33.7631 18.984H33.6031C33.6031 18.984 33.0431 16.856 33.0591 16.856L30.5631 9.656ZM46.6316 9.656H39.1596V21H46.6316V19.144H41.0156V16.264H46.1836V14.408H41.0156V11.512H46.6316V9.656Z" fill="#D3D0E8"/>
</svg>
