<svg width="120" height="45" viewBox="0 0 120 45" fill="none" xmlns="http://www.w3.org/2000/svg">
<path d="M17.2948 14.7517C17.2975 15.691 17.1981 16.6279 16.9985 17.5455C16.8189 18.3837 16.5095 19.1882 16.0815 19.9296C15.6909 20.6028 15.1282 21.1584 14.4519 21.5389C13.766 21.9353 12.883 22.1349 11.8252 22.1349C10.7674 22.1349 9.91262 21.9397 9.22521 21.5508C8.54999 21.1763 7.98327 20.6314 7.58077 19.9699C7.14248 19.2325 6.82955 18.4267 6.65484 17.5858C6.45393 16.6547 6.35359 15.7044 6.35558 14.7517V2.84454H1.67114V14.7517C1.66741 16.2114 1.8466 17.6657 2.20447 19.0803C2.54182 20.4348 3.12329 21.7156 3.92003 22.8591C4.73396 24.0015 5.81999 24.9202 7.07855 25.5308C8.37336 26.1775 9.9704 26.5053 11.8193 26.5053C13.6311 26.5053 15.2 26.1894 16.483 25.5651C17.7311 24.9743 18.8184 24.0883 19.6519 22.9828C20.4799 21.8576 21.0863 20.5836 21.4385 19.2293C21.825 17.7687 22.0178 16.2631 22.0119 14.7517V2.84454H17.2948V14.7517Z" fill="#D3D1E9"/>
<path d="M23.452 7.14785H30.8579V26.3518H35.5735V7.14785H42.9483V2.84454H23.452V7.14785Z" fill="#D3D1E9"/>
<path d="M77.0208 7.14785H84.4267V26.3518H89.1422V7.14785H96.5171V2.84454H77.0208V7.14785Z" fill="#D3D1E9"/>
<path d="M113.613 2.84454V14.7517C113.616 15.691 113.517 16.6279 113.317 17.5455C113.137 18.3835 112.829 19.1879 112.401 19.9296C112.01 20.6024 111.448 21.158 110.772 21.5389C110.086 21.9353 109.201 22.1349 108.145 22.1349C107.089 22.1349 106.231 21.9397 105.544 21.5508C104.869 21.1766 104.302 20.6317 103.901 19.9699C103.462 19.2326 103.148 18.4268 102.973 17.5858C102.773 16.6521 102.673 15.6994 102.677 14.7442V2.84454H97.9881V14.7517C97.983 16.2127 98.1612 17.6686 98.5185 19.0848C98.8552 20.4395 99.4367 21.7204 100.234 22.8636C101.048 24.0056 102.133 24.9242 103.391 25.5353C104.686 26.182 106.283 26.5098 108.139 26.5098C109.95 26.5098 111.518 26.1939 112.803 25.5695C114.051 24.978 115.138 24.0921 115.972 22.9873C116.797 21.8614 117.4 20.5874 117.75 19.2338C118.138 17.772 118.333 16.2649 118.329 14.7517V2.84454H113.613Z" fill="#D3D1E9"/>
<path d="M73.8133 2.3409C73.793 2.55303 73.6899 2.74841 73.5266 2.88417C73.3633 3.01993 73.1531 3.08499 72.9422 3.06508C71.2399 2.90266 67.9051 2.95183 64.6948 5.09753C62.9361 6.28248 61.5028 7.89423 60.5274 9.78378L59.8192 11.1502L59.1111 9.78527C58.1316 7.89776 56.6953 6.28869 54.9348 5.10647C51.7185 2.96673 48.3837 2.92501 46.6829 3.0919C46.5256 3.10661 46.3675 3.07422 46.2284 2.99881C46.0893 2.92339 45.9755 2.80832 45.9013 2.66804C45.827 2.52776 45.7956 2.36854 45.8111 2.21039C45.8265 2.05224 45.8881 1.9022 45.9881 1.77915C46.1228 1.61482 46.3167 1.51087 46.5274 1.49008C48.44 1.30382 52.1881 1.3515 55.8148 3.76541C57.411 4.82791 58.7726 6.20957 59.8148 7.82435C60.8547 6.20775 62.2136 4.82319 63.8074 3.75647C66.1594 2.20441 68.9143 1.38445 71.7274 1.39918C72.1881 1.39918 72.6474 1.42153 73.0933 1.46325C73.3043 1.484 73.4986 1.58801 73.6335 1.7525C73.7685 1.917 73.8331 2.12858 73.8133 2.3409Z" fill="#D3D1E9"/>
<path d="M73.8133 29.2292C73.7935 29.0168 73.6905 28.821 73.5272 28.6849C73.3638 28.5489 73.1534 28.4836 72.9422 28.5035C71.24 28.6659 67.9052 28.6182 64.6948 26.4711C62.9358 25.2865 61.5024 23.6747 60.5274 21.7848L59.8193 20.4139L59.1111 21.7833C58.1316 23.6708 56.6954 25.2799 54.9348 26.4621C51.7185 28.6019 48.3837 28.6436 46.683 28.4782C46.5773 28.4663 46.4704 28.4761 46.3685 28.5068C46.2667 28.5375 46.1721 28.5886 46.0904 28.657C45.9686 28.7584 45.8794 28.8938 45.8339 29.0461C45.7884 29.1983 45.7888 29.3608 45.8349 29.5129C45.8809 29.665 45.9707 29.8 46.0929 29.9009C46.2151 30.0018 46.3642 30.0641 46.5215 30.08C48.4341 30.2648 52.1822 30.2171 55.8089 27.8047C57.4048 26.7418 58.7663 25.3602 59.8089 23.7457C60.8493 25.3615 62.2082 26.7455 63.8015 27.8121C66.1528 29.3645 68.9074 30.1846 71.72 30.1694C72.1808 30.1694 72.64 30.1485 73.0859 30.1053C73.191 30.0962 73.2933 30.0662 73.3868 30.0171C73.4803 29.968 73.5632 29.9009 73.6308 29.8194C73.6985 29.738 73.7494 29.6439 73.7807 29.5426C73.812 29.4413 73.8231 29.3348 73.8133 29.2292Z" fill="#D3D1E9"/>
<path d="M78.0548 8.83163C76.4133 7.16872 74.3348 6.44752 72.0563 6.29852C69.4489 6.11971 67.1541 7.02716 65.0326 8.46507C63.2548 9.67203 61.7289 11.174 60.2296 12.7028C60.0933 12.8399 59.9748 13.0008 59.7852 13.2214C59.5585 12.9621 59.397 12.755 59.2133 12.5687C57.64 10.9758 56.0518 9.39935 54.1763 8.1611C52.0785 6.77832 49.8044 6.09736 47.2756 6.37302C43.0518 6.82898 39.517 10.2472 38.9333 14.4656C38.9124 14.5742 38.8857 14.6817 38.8533 14.7874V16.8899C39.0415 17.6901 39.1689 18.5126 39.4281 19.2889C40.8 23.3791 44.6726 25.6426 48.9007 25.2492C51.7156 24.9914 54.0667 23.7174 56.1511 21.8965L59.7185 18.3278C60.0474 18.6765 60.2622 18.9119 60.4844 19.1384C62.0178 20.6911 63.5718 22.2243 65.4104 23.4238C68.1437 25.2119 71.0667 25.7871 74.2296 24.7738C78.0474 23.552 80.7363 19.8805 80.7289 15.8558C80.7244 13.1826 79.9659 10.7687 78.0548 8.83163ZM53.6504 13.5149C54.0743 13.5152 54.4886 13.6419 54.8409 13.879C55.1933 14.1161 55.4678 14.4529 55.6298 14.847C55.7919 15.241 55.8341 15.6744 55.7512 16.0926C55.6683 16.5107 55.4641 16.8948 55.1642 17.1962C54.8643 17.4976 54.4824 17.7028 54.0666 17.7858C53.6508 17.8689 53.2198 17.8261 52.8282 17.6629C52.4366 17.4997 52.1018 17.2233 51.8664 16.8688C51.6309 16.5142 51.5052 16.0974 51.5052 15.671C51.5052 15.3878 51.5607 15.1073 51.6685 14.8456C51.7763 14.5839 51.9344 14.3461 52.1336 14.1459C52.3328 13.9457 52.5693 13.7869 52.8296 13.6786C53.0898 13.5703 53.3687 13.5147 53.6504 13.5149ZM47.2504 21.308C44.9393 20.9116 43.2889 19.1325 42.9541 16.7141C42.4889 13.2869 44.7467 10.4469 48.1704 10.1921C48.99 10.1359 49.8122 10.2558 50.5822 10.5437C49.6876 11.0851 48.9505 11.8539 48.4453 12.7729C47.94 13.6919 47.6845 14.7286 47.7043 15.7785C47.7241 16.8285 48.0186 17.8546 48.5582 18.7537C49.0978 19.6527 49.8633 20.3929 50.7778 20.8997C49.6627 21.3633 48.441 21.5047 47.2504 21.308ZM65.9259 17.8272C65.5019 17.8272 65.0875 17.7007 64.7349 17.4638C64.3824 17.2269 64.1077 16.8901 63.9454 16.4961C63.7831 16.1022 63.7407 15.6686 63.8234 15.2504C63.9061 14.8321 64.1103 14.448 64.4101 14.1464C64.7099 13.8449 65.0919 13.6395 65.5077 13.5563C65.9235 13.4731 66.3546 13.5158 66.7463 13.679C67.138 13.8422 67.4728 14.1186 67.7083 14.4732C67.9439 14.8277 68.0696 15.2446 68.0696 15.671C68.0696 15.9542 68.0142 16.2346 67.9064 16.4961C67.7987 16.7577 67.6408 16.9954 67.4418 17.1956C67.2427 17.3959 67.0064 17.5547 66.7463 17.663C66.4862 17.7714 66.2074 17.8272 65.9259 17.8272ZM76.4444 17.3518C75.7911 19.6316 74.2015 20.9772 71.8518 21.3437C70.7856 21.5123 69.6938 21.3781 68.6993 20.9563C69.6266 20.4644 70.408 19.7344 70.9642 18.8405C71.5203 17.9466 71.8313 16.9205 71.8656 15.8666C71.8999 14.8127 71.6563 13.7684 71.1595 12.8398C70.6627 11.9112 69.9304 11.1313 69.037 10.5795C69.163 10.5363 69.2904 10.496 69.4207 10.4603C71.4044 9.9164 73.3067 10.055 74.877 11.5033C76.5926 13.1007 77.0756 15.1391 76.4444 17.3518Z" fill="#D3D1E9"/>
<path d="M19.7703 42.7649V36.4158C19.7684 36.4031 19.7694 36.3902 19.7732 36.378C19.7771 36.3658 19.7838 36.3547 19.7928 36.3455C19.8017 36.3364 19.8126 36.3295 19.8247 36.3254C19.8367 36.3213 19.8496 36.3201 19.8622 36.3219H20.3363C20.3489 36.3202 20.3618 36.3214 20.3739 36.3255C20.386 36.3296 20.397 36.3365 20.406 36.3456C20.4151 36.3546 20.4219 36.3657 20.426 36.3779C20.4301 36.3901 20.4313 36.403 20.4296 36.4158V42.2419C20.4288 42.247 20.4293 42.2522 20.4309 42.257C20.4325 42.2619 20.4352 42.2663 20.4388 42.2699C20.4424 42.2735 20.4468 42.2763 20.4516 42.2779C20.4565 42.2795 20.4616 42.2799 20.4666 42.2792H23.1674C23.18 42.2774 23.1929 42.2787 23.205 42.2828C23.2171 42.2869 23.2281 42.2938 23.2372 42.3029C23.2462 42.3119 23.253 42.323 23.2571 42.3352C23.2612 42.3474 23.2624 42.3603 23.2607 42.373V42.7649C23.2625 42.7776 23.2613 42.7905 23.2572 42.8027C23.2531 42.8148 23.2462 42.8258 23.2372 42.8348C23.2281 42.8437 23.2171 42.8505 23.2049 42.8544C23.1928 42.8583 23.1799 42.8593 23.1674 42.8573H19.8622C19.8497 42.8594 19.8368 42.8584 19.8247 42.8545C19.8127 42.8506 19.8017 42.8438 19.7927 42.8348C19.7837 42.8258 19.777 42.8147 19.7731 42.8026C19.7693 42.7904 19.7683 42.7775 19.7703 42.7649Z" fill="#D3D1E9"/>
<path d="M26.0074 42.7649V36.4158C26.0057 36.403 26.007 36.3901 26.0111 36.3779C26.0151 36.3657 26.022 36.3546 26.031 36.3456C26.04 36.3365 26.051 36.3296 26.0631 36.3255C26.0752 36.3214 26.0881 36.3202 26.1008 36.3219H26.5749C26.5875 36.3201 26.6003 36.3213 26.6124 36.3254C26.6244 36.3295 26.6354 36.3364 26.6443 36.3455C26.6532 36.3547 26.6599 36.3658 26.6638 36.378C26.6677 36.3902 26.6687 36.4031 26.6667 36.4158V42.7649C26.6684 42.7775 26.6672 42.7902 26.6632 42.8022C26.6592 42.8142 26.6525 42.8251 26.6436 42.8341C26.6347 42.843 26.6239 42.8498 26.6119 42.8538C26.6 42.8578 26.5873 42.859 26.5749 42.8573H26.1008C26.0882 42.8593 26.0753 42.8583 26.0632 42.8544C26.0511 42.8505 26.0401 42.8437 26.031 42.8348C26.0219 42.8258 26.0151 42.8148 26.011 42.8027C26.0069 42.7905 26.0057 42.7776 26.0074 42.7649Z" fill="#D3D1E9"/>
<path d="M31.2253 42.7739L29.5364 36.4247L29.526 36.3964C29.526 36.3472 29.5571 36.3219 29.6193 36.3219H30.1201C30.1324 36.32 30.1451 36.3207 30.1571 36.3241C30.1692 36.3274 30.1804 36.3333 30.1901 36.3413C30.1997 36.3494 30.2076 36.3593 30.2131 36.3706C30.2187 36.3819 30.2218 36.3942 30.2223 36.4068L31.5779 41.7472C31.5779 41.7591 31.5897 41.7651 31.5971 41.7651C31.6045 41.7651 31.609 41.7651 31.6149 41.7472L32.9704 36.4068C32.9731 36.382 32.9852 36.3593 33.0043 36.3434C33.0234 36.3275 33.048 36.3198 33.0727 36.3219H33.5556C33.5686 36.3209 33.5817 36.3229 33.5937 36.3278C33.6058 36.3327 33.6166 36.3404 33.6253 36.3502C33.633 36.3608 33.6382 36.373 33.6405 36.3859C33.6428 36.3988 33.6421 36.4121 33.6386 36.4247L31.9497 42.7739C31.9464 42.7982 31.934 42.8204 31.915 42.8359C31.896 42.8514 31.8719 42.8591 31.8475 42.8573H31.3275C31.3029 42.8598 31.2784 42.8524 31.2593 42.8368C31.2401 42.8212 31.2279 42.7985 31.2253 42.7739Z" fill="#D3D1E9"/>
<path d="M39.923 36.9015H37.1392C37.1342 36.9008 37.1291 36.9012 37.1242 36.9028C37.1194 36.9044 37.115 36.9071 37.1114 36.9108C37.1078 36.9144 37.1051 36.9188 37.1035 36.9237C37.1019 36.9285 37.1015 36.9337 37.1022 36.9388V39.2543C37.1015 39.2594 37.1019 39.2646 37.1035 39.2694C37.1051 39.2743 37.1078 39.2787 37.1114 39.2823C37.115 39.286 37.1194 39.2887 37.1242 39.2903C37.1291 39.2919 37.1342 39.2923 37.1392 39.2916H39.0133C39.0259 39.2896 39.0388 39.2906 39.0509 39.2945C39.063 39.2984 39.074 39.3051 39.0831 39.3141C39.0922 39.3231 39.099 39.3341 39.1031 39.3462C39.1072 39.3584 39.1084 39.3713 39.1067 39.384V39.7848C39.1084 39.7975 39.1072 39.8104 39.1031 39.8225C39.099 39.8346 39.0922 39.8456 39.0831 39.8546C39.074 39.8636 39.063 39.8703 39.0509 39.8742C39.0388 39.8782 39.0259 39.8792 39.0133 39.8772H37.1392C37.1342 39.8764 37.1291 39.8769 37.1242 39.8785C37.1194 39.8801 37.115 39.8828 37.1114 39.8864C37.1078 39.89 37.1051 39.8945 37.1035 39.8993C37.1019 39.9042 37.1015 39.9094 37.1022 39.9144V42.2494C37.1015 42.2544 37.1019 42.2596 37.1035 42.2645C37.1051 42.2693 37.1078 42.2737 37.1114 42.2774C37.115 42.281 37.1194 42.2837 37.1242 42.2853C37.1291 42.2869 37.1342 42.2874 37.1392 42.2866H39.923C39.9356 42.2849 39.9485 42.2861 39.9606 42.2902C39.9727 42.2944 39.9837 42.3012 39.9927 42.3103C40.0018 42.3194 40.0086 42.3304 40.0127 42.3426C40.0168 42.3548 40.018 42.3678 40.0163 42.3805V42.7649C40.0181 42.7776 40.0169 42.7905 40.0128 42.8027C40.0087 42.8148 40.0018 42.8258 39.9927 42.8348C39.9837 42.8437 39.9726 42.8505 39.9605 42.8544C39.9484 42.8583 39.9355 42.8593 39.923 42.8573H36.5348C36.5224 42.8591 36.5097 42.8579 36.4978 42.8539C36.486 42.8499 36.4752 42.8431 36.4664 42.8341C36.4576 42.8251 36.451 42.8142 36.4472 42.8021C36.4434 42.7901 36.4424 42.7774 36.4444 42.7649V36.4158C36.4425 36.4031 36.4435 36.3902 36.4473 36.378C36.4512 36.3658 36.4579 36.3547 36.4668 36.3455C36.4758 36.3364 36.4867 36.3295 36.4988 36.3254C36.5108 36.3213 36.5237 36.3201 36.5363 36.3219H39.9244C39.9371 36.3202 39.95 36.3214 39.9621 36.3255C39.9742 36.3296 39.9852 36.3365 39.9942 36.3456C40.0032 36.3546 40.0101 36.3657 40.0142 36.3779C40.0182 36.3901 40.0195 36.403 40.0178 36.4158V36.8047C40.0201 36.8178 40.0192 36.8312 40.0153 36.8439C40.0113 36.8566 40.0044 36.8682 39.9952 36.8777C39.9859 36.8871 39.9745 36.8942 39.9619 36.8984C39.9494 36.9025 39.936 36.9036 39.923 36.9015Z" fill="#D3D1E9"/>
<path d="M46.8726 42.467C46.7013 42.3118 46.5663 42.1205 46.4772 41.9066C46.388 41.6928 46.347 41.4618 46.3571 41.2302V40.9769C46.3551 40.9642 46.3561 40.9513 46.36 40.9391C46.3639 40.9269 46.3706 40.9158 46.3795 40.9067C46.3884 40.8976 46.3994 40.8907 46.4114 40.8866C46.4235 40.8824 46.4363 40.8812 46.4489 40.883H46.9052C46.9178 40.8812 46.9307 40.8824 46.9427 40.8866C46.9548 40.8907 46.9657 40.8976 46.9747 40.9067C46.9836 40.9158 46.9903 40.9269 46.9942 40.9391C46.9981 40.9513 46.9991 40.9642 46.9971 40.9769V41.2004C46.991 41.3575 47.019 41.514 47.0791 41.6592C47.1392 41.8043 47.23 41.9345 47.3452 42.0408C47.6024 42.2604 47.9327 42.3738 48.2697 42.3582C48.5847 42.3755 48.894 42.2686 49.1319 42.0602C49.2368 41.9592 49.3191 41.837 49.3735 41.7016C49.4279 41.5663 49.4531 41.4208 49.4474 41.2749C49.4523 41.0806 49.4008 40.889 49.2993 40.7236C49.185 40.5535 49.0385 40.4077 48.8682 40.2944C48.6786 40.1633 48.406 39.9964 48.046 39.7997C47.7341 39.6371 47.4319 39.4565 47.1408 39.2588C46.9253 39.1068 46.7424 38.9128 46.603 38.6882C46.4573 38.44 46.3849 38.1552 46.3941 37.8671C46.3815 37.6448 46.4184 37.4225 46.5019 37.2163C46.5854 37.0101 46.7136 36.8252 46.8771 36.6751C47.2387 36.3748 47.6991 36.2217 48.1674 36.2459C48.7423 36.2459 49.2 36.4049 49.5408 36.7228C49.7106 36.8836 49.8441 37.0793 49.9323 37.2965C50.0205 37.5137 50.0613 37.7474 50.0519 37.9819V38.1979C50.0537 38.2106 50.0525 38.2235 50.0484 38.2356C50.0443 38.2478 50.0374 38.2588 50.0284 38.2678C50.0193 38.2767 50.0082 38.2835 49.9961 38.2874C49.984 38.2913 49.9711 38.2923 49.9586 38.2903H49.4949C49.4823 38.2923 49.4694 38.2913 49.4573 38.2874C49.4452 38.2835 49.4341 38.2767 49.425 38.2678C49.416 38.2588 49.4091 38.2478 49.405 38.2356C49.4009 38.2235 49.3997 38.2106 49.4015 38.1979V37.9968C49.4079 37.8403 49.3815 37.6842 49.3241 37.5387C49.2667 37.3932 49.1795 37.2614 49.0682 37.1519C48.8189 36.9273 48.4913 36.811 48.1571 36.8285C47.8606 36.8117 47.5689 36.9086 47.3408 37.0997C47.2392 37.1982 47.16 37.3177 47.1089 37.4499C47.0577 37.5821 47.0357 37.724 47.0445 37.8656C47.0377 38.0529 47.0861 38.238 47.1837 38.3976C47.2898 38.5547 47.427 38.6881 47.5867 38.7895C47.763 38.9087 48.0312 39.0666 48.3986 39.2663C48.7329 39.4465 49.0568 39.6455 49.3689 39.8623C49.5837 40.0151 49.7668 40.2084 49.9082 40.4315C50.0467 40.6708 50.1155 40.9445 50.1067 41.2213C50.1165 41.4526 50.0764 41.6832 49.9892 41.8975C49.902 42.1117 49.7698 42.3045 49.6015 42.4625C49.2637 42.7734 48.8104 42.9294 48.2415 42.9304C47.7434 42.9553 47.2544 42.7897 46.8726 42.467Z" fill="#D3D1E9"/>
<path d="M56.3926 36.4158V36.8047C56.3943 36.8174 56.393 36.8304 56.389 36.8425C56.3849 36.8547 56.378 36.8658 56.369 36.8749C56.36 36.884 56.349 36.8908 56.3369 36.8949C56.3248 36.899 56.3119 36.9003 56.2992 36.8986H54.7866C54.7614 36.8986 54.7481 36.9105 54.7481 36.9358V42.765C54.7502 42.7776 54.7492 42.7905 54.7453 42.8026C54.7414 42.8148 54.7347 42.8258 54.7257 42.8348C54.7168 42.8438 54.7058 42.8506 54.6937 42.8545C54.6816 42.8584 54.6688 42.8594 54.6563 42.8573H54.1822C54.1697 42.8594 54.1568 42.8584 54.1448 42.8545C54.1327 42.8506 54.1217 42.8438 54.1127 42.8348C54.1037 42.8258 54.097 42.8148 54.0931 42.8026C54.0893 42.7905 54.0883 42.7776 54.0903 42.765V36.9388C54.0911 36.9337 54.0906 36.9286 54.0891 36.9237C54.0875 36.9188 54.0847 36.9144 54.0811 36.9108C54.0775 36.9072 54.0732 36.9044 54.0683 36.9028C54.0635 36.9012 54.0583 36.9008 54.0533 36.9015H52.5926C52.5799 36.9033 52.567 36.902 52.5549 36.8979C52.5428 36.8938 52.5318 36.8869 52.5228 36.8778C52.5137 36.8688 52.5069 36.8577 52.5028 36.8455C52.4987 36.8334 52.4975 36.8204 52.4992 36.8077V36.4158C52.4975 36.403 52.4987 36.3901 52.5028 36.3779C52.5069 36.3657 52.5137 36.3547 52.5228 36.3456C52.5318 36.3365 52.5428 36.3296 52.5549 36.3255C52.567 36.3214 52.5799 36.3202 52.5926 36.3219H56.2963C56.3091 36.3197 56.3224 36.3205 56.3349 36.3244C56.3474 36.3283 56.3588 36.3351 56.3682 36.3442C56.3775 36.3534 56.3846 36.3646 56.3889 36.377C56.3931 36.3895 56.3944 36.4028 56.3926 36.4158Z" fill="#D3D1E9"/>
<path d="M62.3703 42.7828L61.2103 39.8802C61.2083 39.8719 61.2035 39.8646 61.1968 39.8595C61.19 39.8543 61.1817 39.8516 61.1733 39.8519H59.9881C59.9831 39.8511 59.9779 39.8516 59.9731 39.8532C59.9682 39.8548 59.9638 39.8575 59.9602 39.8611C59.9566 39.8647 59.9539 39.8692 59.9523 39.874C59.9507 39.8789 59.9503 39.8841 59.9511 39.8891V42.765C59.9531 42.7775 59.9521 42.7905 59.9482 42.8026C59.9444 42.8148 59.9376 42.8258 59.9287 42.8348C59.9197 42.8438 59.9087 42.8506 59.8966 42.8545C59.8846 42.8584 59.8717 42.8594 59.8592 42.8573H59.3851C59.3726 42.8594 59.3598 42.8584 59.3477 42.8545C59.3356 42.8506 59.3246 42.8438 59.3157 42.8348C59.3067 42.8258 59.3 42.8148 59.2961 42.8026C59.2922 42.7905 59.2912 42.7775 59.2933 42.765V36.4068C59.2913 36.3942 59.2923 36.3813 59.2962 36.3691C59.3001 36.3569 59.3068 36.3458 59.3157 36.3366C59.3246 36.3275 59.3356 36.3206 59.3476 36.3165C59.3597 36.3124 59.3725 36.3112 59.3851 36.313H61.354C61.5772 36.3042 61.7996 36.3438 62.0061 36.4292C62.2127 36.5145 62.3985 36.6436 62.5511 36.8077C62.8644 37.1645 63.0275 37.6299 63.0059 38.1055C63.018 38.4933 62.9092 38.8752 62.6948 39.1977C62.4959 39.4908 62.197 39.7002 61.8548 39.7863C61.8296 39.7982 61.8237 39.8146 61.8355 39.8325L63.0429 42.7456L63.0518 42.7828C63.0518 42.8335 63.0251 42.8573 62.9688 42.8573H62.477C62.4533 42.8599 62.4294 42.8537 62.4099 42.8401C62.3903 42.8264 62.3762 42.8061 62.3703 42.7828ZM59.9466 36.9284V39.2812C59.9459 39.2863 59.9464 39.2915 59.948 39.2964C59.9496 39.3013 59.9523 39.3058 59.9558 39.3096C59.9594 39.3133 59.9637 39.3162 59.9686 39.3179C59.9734 39.3197 59.9785 39.3204 59.9837 39.3199H61.2651C61.4115 39.325 61.5572 39.2979 61.692 39.2405C61.8269 39.1831 61.9476 39.0968 62.0459 38.9876C62.2512 38.7449 62.3571 38.4328 62.3422 38.1145C62.3573 37.792 62.2515 37.4757 62.0459 37.2279C61.9484 37.1175 61.8278 37.03 61.6929 36.9718C61.5579 36.9136 61.4119 36.8861 61.2651 36.8911H59.9837C59.9787 36.8907 59.9737 36.8913 59.969 36.893C59.9643 36.8947 59.96 36.8975 59.9565 36.901C59.9529 36.9046 59.9502 36.9089 59.9485 36.9136C59.9468 36.9183 59.9462 36.9234 59.9466 36.9284Z" fill="#D3D1E9"/>
<path d="M69.434 36.9015H66.6503C66.6453 36.9008 66.6402 36.9012 66.6353 36.9028C66.6305 36.9044 66.6261 36.9071 66.6225 36.9108C66.6189 36.9144 66.6162 36.9188 66.6146 36.9237C66.613 36.9285 66.6126 36.9337 66.6133 36.9388V39.2543C66.6126 39.2594 66.613 39.2646 66.6146 39.2694C66.6162 39.2743 66.6189 39.2787 66.6225 39.2823C66.6261 39.286 66.6305 39.2887 66.6353 39.2903C66.6402 39.2919 66.6453 39.2923 66.6503 39.2916H68.5244C68.537 39.2896 68.5499 39.2906 68.562 39.2945C68.5741 39.2984 68.5851 39.3052 68.5942 39.3141C68.6033 39.3231 68.6101 39.3341 68.6142 39.3462C68.6183 39.3584 68.6195 39.3713 68.6178 39.384V39.7848C68.6195 39.7975 68.6183 39.8104 68.6142 39.8225C68.6101 39.8347 68.6033 39.8456 68.5942 39.8546C68.5851 39.8636 68.5741 39.8703 68.562 39.8742C68.5499 39.8782 68.537 39.8792 68.5244 39.8772H66.6503C66.6453 39.8764 66.6402 39.8769 66.6353 39.8785C66.6305 39.8801 66.6261 39.8828 66.6225 39.8864C66.6189 39.89 66.6162 39.8945 66.6146 39.8993C66.613 39.9042 66.6126 39.9094 66.6133 39.9144V42.2494C66.6126 42.2544 66.613 42.2596 66.6146 42.2645C66.6162 42.2693 66.6189 42.2738 66.6225 42.2774C66.6261 42.281 66.6305 42.2837 66.6353 42.2853C66.6402 42.2869 66.6453 42.2874 66.6503 42.2866H69.434C69.4467 42.2849 69.4596 42.2861 69.4717 42.2902C69.4838 42.2944 69.4948 42.3012 69.5038 42.3103C69.5129 42.3194 69.5197 42.3305 69.5238 42.3426C69.5279 42.3548 69.5291 42.3678 69.5274 42.3805V42.7649C69.5292 42.7776 69.5279 42.7905 69.5239 42.8027C69.5198 42.8148 69.5129 42.8258 69.5038 42.8348C69.4948 42.8437 69.4837 42.8505 69.4716 42.8544C69.4595 42.8583 69.4466 42.8593 69.434 42.8573H66.0459C66.0334 42.8594 66.0205 42.8584 66.0085 42.8545C65.9964 42.8506 65.9854 42.8438 65.9764 42.8348C65.9675 42.8258 65.9607 42.8147 65.9569 42.8026C65.953 42.7904 65.952 42.7775 65.954 42.7649V36.4158C65.9521 36.4031 65.9531 36.3902 65.957 36.378C65.9609 36.3658 65.9675 36.3547 65.9765 36.3455C65.9854 36.3364 65.9963 36.3295 66.0084 36.3254C66.0204 36.3213 66.0333 36.3201 66.0459 36.3219H69.434C69.4467 36.3202 69.4596 36.3214 69.4717 36.3255C69.4838 36.3296 69.4948 36.3365 69.5038 36.3456C69.5129 36.3546 69.5197 36.3657 69.5238 36.3779C69.5279 36.3901 69.5291 36.403 69.5274 36.4158V36.8047C69.5296 36.8176 69.5288 36.8309 69.5249 36.8435C69.5211 36.856 69.5143 36.8675 69.5052 36.877C69.4961 36.8864 69.4849 36.8935 69.4726 36.8978C69.4602 36.9021 69.447 36.9033 69.434 36.9015Z" fill="#D3D1E9"/>
<path d="M75.7837 42.7739L75.4785 41.6071C75.4749 41.5977 75.4683 41.5898 75.4597 41.5847C75.4511 41.5796 75.441 41.5775 75.4311 41.5788H73.2089C73.199 41.5775 73.1889 41.5796 73.1803 41.5847C73.1717 41.5898 73.1651 41.5977 73.1615 41.6071L72.8563 42.7739C72.853 42.7982 72.8406 42.8204 72.8216 42.8359C72.8026 42.8514 72.7785 42.859 72.7541 42.8573H72.2711C72.258 42.859 72.2447 42.8573 72.2324 42.8523C72.2201 42.8474 72.2092 42.8395 72.2008 42.8292C72.1924 42.819 72.1866 42.8068 72.1842 42.7937C72.1817 42.7806 72.1826 42.7671 72.1867 42.7545L73.9259 36.4068C73.9285 36.382 73.9407 36.3593 73.9598 36.3434C73.9789 36.3275 74.0035 36.3198 74.0281 36.3219H74.6207C74.6454 36.3202 74.6697 36.328 74.6887 36.3438C74.7077 36.3596 74.72 36.3822 74.723 36.4068L76.4593 42.7545L76.4681 42.7828C76.4681 42.8335 76.437 42.8573 76.3748 42.8573H75.8919C75.8793 42.859 75.8665 42.8581 75.8543 42.8549C75.8421 42.8516 75.8306 42.8459 75.8206 42.8381C75.8105 42.8304 75.8021 42.8207 75.7958 42.8097C75.7895 42.7987 75.7853 42.7865 75.7837 42.7739ZM73.3333 41.023C73.3418 41.0321 73.3535 41.0374 73.3659 41.0379H75.2919C75.3042 41.0374 75.3159 41.0321 75.3244 41.023C75.3333 41.0141 75.3348 41.0066 75.3244 40.9992L74.3496 37.2651C74.3496 37.2532 74.3378 37.2457 74.3318 37.2457C74.3259 37.2457 74.3185 37.2457 74.3126 37.2651L73.3289 40.9992C73.3185 41.0066 73.32 41.0141 73.3333 41.023Z" fill="#D3D1E9"/>
<path d="M79.3585 42.7649V36.4158C79.3566 36.4031 79.3576 36.3902 79.3615 36.378C79.3653 36.3658 79.372 36.3547 79.381 36.3455C79.3899 36.3364 79.4008 36.3295 79.4129 36.3254C79.4249 36.3213 79.4378 36.3201 79.4504 36.3219H79.9245C79.9475 36.3194 79.9708 36.3244 79.9908 36.3362C80.0108 36.348 80.0265 36.366 80.0356 36.3874L81.4104 39.1515C81.4125 39.1569 81.4162 39.1614 81.4209 39.1646C81.4257 39.1678 81.4313 39.1695 81.4371 39.1694C81.443 39.1696 81.4488 39.168 81.4539 39.1648C81.4589 39.1616 81.4628 39.157 81.4652 39.1515L82.8489 36.3874C82.858 36.366 82.8737 36.348 82.8937 36.3362C82.9137 36.3244 82.9369 36.3194 82.96 36.3219H83.443C83.4556 36.3202 83.4685 36.3214 83.4806 36.3255C83.4927 36.3296 83.5037 36.3365 83.5128 36.3456C83.5218 36.3546 83.5286 36.3657 83.5327 36.3779C83.5368 36.3901 83.538 36.403 83.5363 36.4158V42.7649C83.5381 42.7776 83.5369 42.7905 83.5328 42.8027C83.5287 42.8148 83.5219 42.8258 83.5128 42.8348C83.5037 42.8437 83.4927 42.8505 83.4805 42.8544C83.4684 42.8583 83.4555 42.8593 83.443 42.8573H82.963C82.9505 42.859 82.9378 42.8578 82.9259 42.8538C82.914 42.8498 82.9031 42.843 82.8942 42.8341C82.8853 42.8251 82.8786 42.8142 82.8746 42.8022C82.8706 42.7902 82.8694 42.7775 82.8711 42.7649V37.8254C82.8711 37.806 82.8711 37.7956 82.8563 37.7926C82.8415 37.7896 82.837 37.7926 82.8237 37.806L81.6637 40.1126C81.6544 40.1339 81.6387 40.1518 81.6187 40.1635C81.5988 40.1753 81.5756 40.1804 81.5526 40.1782H81.3393C81.3162 40.1807 81.293 40.1756 81.273 40.1638C81.2529 40.152 81.2372 40.1341 81.2282 40.1126L80.0578 37.797C80.0495 37.7872 80.0379 37.7809 80.0252 37.7792C80.0163 37.7792 80.0119 37.7881 80.0119 37.806V42.7649C80.0136 42.7776 80.0124 42.7905 80.0084 42.8027C80.0043 42.8148 79.9974 42.8258 79.9883 42.8348C79.9793 42.8437 79.9682 42.8505 79.9561 42.8544C79.944 42.8583 79.9311 42.8593 79.9185 42.8573H79.4445C79.4325 42.8581 79.4204 42.8562 79.4093 42.8517C79.3981 42.8472 79.388 42.8403 79.3798 42.8315C79.3716 42.8227 79.3654 42.8121 79.3618 42.8006C79.3581 42.7891 79.357 42.7769 79.3585 42.7649Z" fill="#D3D1E9"/>
<path d="M86.8311 42.7648V36.4157C86.8293 36.4029 86.8306 36.39 86.8347 36.3778C86.8387 36.3656 86.8456 36.3546 86.8546 36.3455C86.8636 36.3364 86.8746 36.3295 86.8867 36.3254C86.8989 36.3213 86.9117 36.3201 86.9244 36.3218H87.397C87.4096 36.3201 87.4225 36.3213 87.4346 36.3254C87.4467 36.3295 87.4577 36.3364 87.4668 36.3455C87.4758 36.3546 87.4826 36.3656 87.4867 36.3778C87.4908 36.39 87.492 36.4029 87.4903 36.4157V42.7648C87.4921 42.7775 87.4909 42.7904 87.4868 42.8026C87.4827 42.8147 87.4759 42.8257 87.4668 42.8347C87.4577 42.8437 87.4467 42.8504 87.4346 42.8543C87.4224 42.8582 87.4096 42.8592 87.397 42.8572H86.9244C86.9118 42.8592 86.899 42.8582 86.8868 42.8543C86.8747 42.8504 86.8637 42.8437 86.8546 42.8347C86.8455 42.8257 86.8387 42.8147 86.8346 42.8026C86.8305 42.7904 86.8293 42.7775 86.8311 42.7648Z" fill="#D3D1E9"/>
<path d="M90.7955 42.7649V36.4158C90.7936 36.4031 90.7946 36.3902 90.7985 36.378C90.8024 36.3658 90.809 36.3547 90.818 36.3455C90.8269 36.3364 90.8378 36.3295 90.8499 36.3254C90.8619 36.3213 90.8748 36.3201 90.8874 36.3219H91.3615C91.3845 36.3196 91.4076 36.3247 91.4276 36.3365C91.4476 36.3483 91.4633 36.3661 91.4726 36.3874L93.9704 41.3047C93.9741 41.31 93.979 41.3145 93.9846 41.3179C93.9902 41.3212 93.9965 41.3233 94.003 41.324C94.0118 41.324 94.0163 41.3136 94.0163 41.2957V36.4158C94.0146 36.403 94.0158 36.3901 94.0199 36.3779C94.024 36.3657 94.0308 36.3546 94.0398 36.3456C94.0489 36.3365 94.0599 36.3296 94.072 36.3255C94.0841 36.3214 94.097 36.3202 94.1096 36.3219H94.5822C94.5949 36.3202 94.6078 36.3214 94.6199 36.3255C94.632 36.3296 94.643 36.3365 94.652 36.3456C94.661 36.3546 94.6679 36.3657 94.6719 36.3779C94.676 36.3901 94.6773 36.403 94.6756 36.4158V42.7649C94.6773 42.7776 94.6761 42.7905 94.672 42.8027C94.6679 42.8148 94.6611 42.8258 94.652 42.8348C94.6429 42.8437 94.6319 42.8505 94.6198 42.8544C94.6077 42.8583 94.5948 42.8593 94.5822 42.8573H94.0993C94.0764 42.8597 94.0534 42.8548 94.0334 42.8433C94.0135 42.8318 93.9976 42.8143 93.9881 42.7932L91.4918 37.8477C91.4785 37.8343 91.4681 37.8298 91.4592 37.8328C91.4504 37.8358 91.4444 37.8477 91.4444 37.8656L91.4548 42.759C91.4566 42.7716 91.4554 42.7846 91.4513 42.7967C91.4472 42.8088 91.4403 42.8198 91.4313 42.8288C91.4222 42.8378 91.4112 42.8445 91.399 42.8484C91.3869 42.8523 91.374 42.8533 91.3615 42.8513H90.8874C90.8754 42.8532 90.8632 42.8523 90.8516 42.8487C90.8401 42.8451 90.8294 42.8389 90.8206 42.8306C90.8118 42.8223 90.8049 42.812 90.8006 42.8007C90.7962 42.7893 90.7945 42.7771 90.7955 42.7649Z" fill="#D3D1E9"/>
<path d="M98.3096 42.4371C98.1365 42.2666 98.001 42.0613 97.9122 41.8346C97.8234 41.6078 97.7831 41.3648 97.7941 41.1213V38.0593C97.7833 37.8156 97.8236 37.5724 97.9124 37.3454C98.0012 37.1185 98.1366 36.9129 98.3096 36.742C98.6798 36.4023 99.169 36.2244 99.6696 36.2473C100.009 36.24 100.346 36.3168 100.649 36.4708C100.922 36.6138 101.15 36.8305 101.308 37.0967C101.47 37.3775 101.552 37.6976 101.545 38.022V38.2828C101.547 38.2955 101.546 38.3085 101.542 38.3206C101.538 38.3328 101.531 38.3439 101.522 38.3529C101.513 38.362 101.502 38.3689 101.49 38.373C101.477 38.3771 101.465 38.3784 101.452 38.3766H100.979C100.967 38.3784 100.954 38.3771 100.942 38.373C100.93 38.3689 100.919 38.362 100.909 38.3529C100.9 38.3439 100.894 38.3328 100.89 38.3206C100.885 38.3085 100.884 38.2955 100.886 38.2828V38.022C100.893 37.8625 100.866 37.7033 100.809 37.5546C100.751 37.4058 100.663 37.2707 100.551 37.1578C100.307 36.9434 99.9938 36.8253 99.6696 36.8253C99.3455 36.8253 99.0324 36.9434 98.7881 37.1578C98.675 37.2737 98.5868 37.4119 98.5292 37.5637C98.4716 37.7155 98.4458 37.8776 98.4533 38.0399V41.1392C98.4465 41.3011 98.4731 41.4627 98.5315 41.6138C98.5899 41.7649 98.6788 41.9021 98.7926 42.0169C99.036 42.2307 99.3473 42.3502 99.6705 42.3537C99.9937 42.3573 100.308 42.2447 100.556 42.0362C100.667 41.9245 100.755 41.7904 100.812 41.6425C100.869 41.4946 100.894 41.3363 100.886 41.178V40.1588C100.886 40.1538 100.886 40.1487 100.884 40.144C100.882 40.1392 100.88 40.135 100.876 40.1314C100.873 40.1278 100.868 40.1251 100.864 40.1234C100.859 40.1217 100.854 40.121 100.849 40.1215H99.763C99.7504 40.1235 99.7375 40.1225 99.7254 40.1186C99.7133 40.1147 99.7022 40.1079 99.6932 40.099C99.6841 40.09 99.6772 40.079 99.6732 40.0669C99.6691 40.0547 99.6679 40.0418 99.6696 40.0291V39.6357C99.6679 39.623 99.6692 39.6101 99.6732 39.5979C99.6773 39.5857 99.6841 39.5746 99.6932 39.5656C99.7022 39.5565 99.7132 39.5496 99.7253 39.5455C99.7374 39.5414 99.7503 39.5401 99.763 39.5419H101.452C101.465 39.5401 101.477 39.5414 101.49 39.5455C101.502 39.5496 101.513 39.5565 101.522 39.5656C101.531 39.5746 101.538 39.5857 101.542 39.5979C101.546 39.6101 101.547 39.623 101.545 39.6357V41.0915C101.557 41.3385 101.518 41.5854 101.43 41.8163C101.342 42.0472 101.207 42.2571 101.034 42.4326C100.652 42.7532 100.17 42.9288 99.6718 42.9288C99.174 42.9288 98.692 42.7532 98.3096 42.4326V42.4371Z" fill="#D3D1E9"/>
</svg>
