<svg width="25" height="25" viewBox="0 0 25 25" fill="none" xmlns="http://www.w3.org/2000/svg">
<path d="M9.25232 7.34314V15.8662C9.25232 17.524 10.8321 18.3042 12.4314 18.3042C14.0112 18.3042 15.6105 17.5045 15.6105 15.8662V7.34314H17.0538V15.8662C17.0538 18.4602 14.7328 19.7669 12.4119 19.7669C10.091 19.7669 7.77004 18.4602 7.77004 15.8662V7.34314H9.25232Z" fill="#FCB500"/>
<path d="M9.21338 7.3432H6.1123V8.74746H9.21338V7.3432Z" fill="#FCB500"/>
<path d="M9.21338 9.85914H6.1123V11.2634H9.21338V9.85914Z" fill="#FCB500"/>
<path d="M18.7503 7.34314H15.6492V8.7474H18.7503V7.34314Z" fill="#FCB500"/>
<path d="M18.7503 9.85914H15.6492V11.2634H18.7503V9.85914Z" fill="#FCB500"/>
<path d="M9.25232 7.34314V15.8662C9.25232 17.524 10.8321 18.3042 12.4314 18.3042C14.0112 18.3042 15.6105 17.5045 15.6105 15.8662V7.34314H17.0538V15.8662C17.0538 18.4602 14.7328 19.7669 12.4119 19.7669C10.091 19.7669 7.77004 18.4602 7.77004 15.8662V7.34314H9.25232Z" stroke="#FCB500" stroke-width="0.5"/>
<path d="M9.21338 7.3432H6.1123V8.74746H9.21338V7.3432Z" stroke="#FCB500" stroke-width="0.5"/>
<path d="M9.21338 9.85914H6.1123V11.2634H9.21338V9.85914Z" stroke="#FCB500" stroke-width="0.5"/>
<path d="M18.7503 7.34314H15.6492V8.7474H18.7503V7.34314Z" stroke="#FCB500" stroke-width="0.5"/>
<path d="M18.7503 9.85914H15.6492V11.2634H18.7503V9.85914Z" stroke="#FCB500" stroke-width="0.5"/>
<circle cx="12.5" cy="12.5" r="11.75" stroke="#FCB500" stroke-width="1.5"/>
</svg>
