<svg width="29" height="29" viewBox="0 0 29 29" fill="none" xmlns="http://www.w3.org/2000/svg">
<path d="M10.724 14.1228C11.9761 14.1228 12.9896 12.9401 12.9896 11.4795C12.9896 10.0189 11.9761 8.83617 10.724 8.83617C9.47182 8.83617 8.45833 10.0204 8.45833 11.4795C8.45833 12.9386 9.47333 14.1228 10.724 14.1228ZM14.5 0C10.6544 0 6.96623 1.52771 4.24695 4.24706C1.52767 6.96641 0 10.6546 0 14.5004C9.91352e-05 16.4046 0.375251 18.2901 1.10404 20.0494C1.83282 21.8086 2.90097 23.4071 4.24749 24.7535C5.59401 26.0999 7.19253 27.1679 8.95179 27.8965C10.711 28.6251 12.5966 29.0001 14.5008 29C16.4049 28.9999 18.2904 28.6247 20.0496 27.8959C21.8088 27.1671 23.4072 26.099 24.7536 24.7524C26.1 23.4059 27.1679 21.8073 27.8965 20.048C28.6251 18.2887 29.0001 16.4031 29 14.4989C29 6.49194 22.5067 0 14.5 0ZM14.5 25.9783C12.9925 25.9783 11.4998 25.6814 10.1071 25.1045C8.7144 24.5276 7.44894 23.682 6.383 22.6161C5.31706 21.5501 4.47151 20.2846 3.89463 18.8919C3.31775 17.4991 3.02083 16.0064 3.02083 14.4989C3.02083 12.9914 3.31775 11.4986 3.89463 10.1059C4.47151 8.71311 5.31706 7.44763 6.383 6.38166C7.44894 5.31569 8.7144 4.47012 10.1071 3.89322C11.4998 3.31633 12.9925 3.0194 14.5 3.0194C17.5445 3.0194 20.4642 4.22884 22.617 6.38166C24.7698 8.53448 25.9792 11.4543 25.9792 14.4989C25.9792 17.5434 24.7698 20.4633 22.617 22.6161C20.4642 24.7689 17.5445 25.9783 14.5 25.9783ZM21.0567 16.5183C20.7901 16.3839 20.4815 16.3591 20.1969 16.4495C19.9123 16.5398 19.6744 16.7381 19.5342 17.0017C19.4829 17.0999 18.2217 19.4078 14.5015 19.4078C10.7995 19.4078 9.53073 17.1225 9.46729 17.0032C9.33149 16.735 9.09472 16.5317 8.80905 16.4381C8.52338 16.3445 8.21223 16.3682 7.94404 16.504C7.67584 16.6398 7.47258 16.8766 7.37896 17.1623C7.28535 17.4479 7.30904 17.7591 7.44484 18.0273C7.52036 18.1768 9.32984 21.6735 14.5015 21.6735C19.6747 21.6735 21.4811 18.1753 21.5552 18.0258C21.6882 17.7597 21.7105 17.4517 21.6171 17.1692C21.5237 16.8867 21.3222 16.6527 21.0567 16.5183ZM16.388 12.6123H20.1641C20.4645 12.6123 20.7526 12.493 20.9651 12.2805C21.1775 12.0681 21.2969 11.7799 21.2969 11.4795C21.2969 11.179 21.1775 10.8909 20.9651 10.6784C20.7526 10.466 20.4645 10.3466 20.1641 10.3466H16.388C16.0876 10.3466 15.7994 10.466 15.587 10.6784C15.3746 10.8909 15.2552 11.179 15.2552 11.4795C15.2552 11.7799 15.3746 12.0681 15.587 12.2805C15.7994 12.493 16.0876 12.6123 16.388 12.6123Z" fill="#6D61A2"/>
</svg>
