<svg width="29" height="29" viewBox="0 0 29 29" fill="none" xmlns="http://www.w3.org/2000/svg">
<path d="M18.456 28.4305C13.0596 28.4305 8.68519 24.0561 8.68519 18.6596C8.68519 13.2632 13.0596 8.88879 18.456 8.88879C23.8525 8.88879 28.2269 13.2632 28.2269 18.6596C28.2269 24.0561 23.8525 28.4305 18.456 28.4305ZM18.456 26.4763C20.5291 26.4763 22.5173 25.6528 23.9832 24.1869C25.4492 22.7209 26.2727 20.7327 26.2727 18.6596C26.2727 16.5865 25.4492 14.5983 23.9832 13.1324C22.5173 11.6665 20.5291 10.843 18.456 10.843C16.3829 10.843 14.3947 11.6665 12.9288 13.1324C11.4629 14.5983 10.6394 16.5865 10.6394 18.6596C10.6394 20.7327 11.4629 22.7209 12.9288 24.1869C14.3947 25.6528 16.3829 26.4763 18.456 26.4763ZM18.456 13.8231L23.2926 18.6596L18.456 23.4962L13.6195 18.6596L18.456 13.8231ZM18.456 16.5872L16.3836 18.6596L18.456 20.732L20.5284 18.6596L18.456 16.5872Z" fill="#F8DE9B"/>
<circle cx="9.77084" cy="9.97445" r="9.77084" fill="#2D3166"/>
<path d="M9.77084 19.7453C4.3744 19.7453 0 15.3709 0 9.97445C0 4.57802 4.3744 0.203613 9.77084 0.203613C15.1673 0.203613 19.5417 4.57802 19.5417 9.97445C19.5417 15.3709 15.1673 19.7453 9.77084 19.7453ZM9.77084 17.7911C11.8439 17.7911 13.8321 16.9676 15.2981 15.5017C16.764 14.0358 17.5875 12.0476 17.5875 9.97445C17.5875 7.90134 16.764 5.91314 15.2981 4.44723C13.8321 2.98132 11.8439 2.15778 9.77084 2.15778C7.69773 2.15778 5.70953 2.98132 4.24362 4.44723C2.77771 5.91314 1.95417 7.90134 1.95417 9.97445C1.95417 12.0476 2.77771 14.0358 4.24362 15.5017C5.70953 16.9676 7.69773 17.7911 9.77084 17.7911ZM9.77084 5.13789L14.6074 9.97445L9.77084 14.811L4.93427 9.97445L9.77084 5.13789ZM9.77084 7.90206L7.69844 9.97445L9.77084 12.0468L11.8432 9.97445L9.77084 7.90206Z" fill="#F8DE9B"/>
</svg>
